<svg width="100" height="100" viewBox="0 0 100 100" fill="none" xmlns="http://www.w3.org/2000/svg">
<path d="M7.46845 0C6.54931 0 5.86454 0.749028 5.94618 1.66427L13.6945 88.5745C13.7761 89.49 14.5671 90.4402 15.4531 90.6861L48.333 99.8154C49.2187 100.061 50.6677 100.061 51.5537 99.816L84.5336 90.6716C85.4193 90.4259 86.2113 89.4759 86.2927 88.5607L94.0539 1.66427C94.1362 0.749028 93.4506 0 92.5315 0H7.46845ZM77.5528 19.9325C77.4796 20.7489 77.353 22.1663 77.2714 23.0818L77.0673 25.3621C76.9851 26.2771 76.8681 27.5859 76.8064 28.2701C76.7448 28.9545 76.6864 29.5144 76.6757 29.5144C76.6653 29.5144 75.9046 29.5144 74.9856 29.5144H51.6711C50.7519 29.5144 49.9923 29.5144 49.9824 29.5144C49.9724 29.5144 49.2121 29.5144 48.2929 29.5144H36.0139C35.0948 29.5144 34.41 30.2635 34.4917 31.1787L35.2079 39.1846C35.2895 40.0996 36.1087 40.8489 37.0276 40.8489H48.2931C49.2123 40.8489 49.9724 40.8489 49.9826 40.8489C49.9927 40.8489 50.7523 40.8489 51.6713 40.8489H71.035C71.9542 40.8489 73.3765 40.8489 74.1956 40.8489C75.0142 40.8489 75.6237 41.517 75.5495 42.3334C75.4749 43.1499 75.3476 44.5676 75.2661 45.4827L72.9632 71.2934C72.8809 72.2088 72.777 73.3782 72.7323 73.8922C72.6866 74.4059 71.9249 75.0272 71.0391 75.2729L51.6105 80.66C50.7248 80.9053 49.989 81.1085 49.9751 81.1116C49.9615 81.1145 49.2259 80.9157 48.3398 80.6702L28.8905 75.2733C28.0047 75.0276 27.2133 74.0776 27.1319 73.1621L25.8799 59.1103C25.7983 58.1949 26.4838 57.4458 27.4029 57.4458H29.178C30.0971 57.4458 31.601 57.4458 32.52 57.4458H35.1669C36.086 57.4458 36.9044 58.1949 36.9866 59.1103L37.4776 64.6111C37.5593 65.5266 38.3516 66.4713 39.2391 66.7109L48.3367 69.1678C49.2236 69.4074 49.9529 69.6035 49.957 69.6035C49.9611 69.6035 50.69 69.407 51.5773 69.1674L60.6912 66.7047C61.5781 66.465 62.3713 65.5199 62.4535 64.6049L63.4418 53.5839C63.5241 52.6685 62.8393 51.9194 61.9201 51.9194H51.6713C50.7521 51.9194 49.9925 51.9194 49.9826 51.9194C49.9726 51.9194 49.2123 51.9194 48.2931 51.9194H26.9074C25.9883 51.9194 25.1699 51.1702 25.0883 50.2552L22.6633 23.082C22.5816 22.1665 22.4551 20.7495 22.3818 19.9327C22.3094 19.1163 23.0014 18.4482 23.9205 18.4482H48.2931C49.2123 18.4482 49.9724 18.4482 49.9826 18.4482C49.9927 18.4482 50.7523 18.4482 51.6713 18.4482H76.0144C76.9333 18.4478 77.6257 19.1157 77.5528 19.9325Z" fill="#DD512A"/>
</svg>
