<svg width="100" height="136" viewBox="0 0 100 136" fill="none" xmlns="http://www.w3.org/2000/svg">
<g clip-path="url(#clip0)">
<path d="M32.2476 104.481C32.2476 104.481 27.0919 107.48 35.9167 108.494C46.6076 109.714 52.0716 109.539 63.853 107.309C63.853 107.309 66.9505 109.251 71.2763 110.933C44.8654 122.253 11.5032 110.278 32.2476 104.481Z" fill="#5382A1"/>
<path d="M29.0204 89.7105C29.0204 89.7105 23.2378 93.9909 32.0691 94.9044C43.4895 96.0825 52.5084 96.1789 68.1146 93.1738C68.1146 93.1738 70.2731 95.3622 73.6673 96.5589C41.7349 105.896 6.16801 97.2953 29.0204 89.7105Z" fill="#5382A1"/>
<path d="M56.2273 64.6542C62.735 72.1465 54.5175 78.8887 54.5175 78.8887C54.5175 78.8887 71.0415 70.3585 63.4528 59.6767C56.3651 49.7153 50.9299 44.7658 80.3542 27.7007C80.3542 27.7007 34.1677 39.236 56.2273 64.6542Z" fill="#E76F00"/>
<path d="M91.1578 115.407C91.1578 115.407 94.9731 118.551 86.956 120.983C71.7113 125.601 23.5058 126.995 10.1145 121.167C5.30073 119.072 14.328 116.166 17.1676 115.556C20.1291 114.914 21.8215 115.034 21.8215 115.034C16.468 111.263 -12.7811 122.439 6.96436 125.64C60.8131 134.372 105.125 121.707 91.1578 115.407Z" fill="#5382A1"/>
<path d="M34.727 74.4062C34.727 74.4062 10.2066 80.2302 26.0437 82.3451C32.7306 83.2404 46.0608 83.0378 58.4775 81.9975C68.6252 81.1415 78.8146 79.3215 78.8146 79.3215C78.8146 79.3215 75.2365 80.8538 72.6477 82.6215C47.7477 89.1702 -0.354467 86.1236 13.4935 79.4251C25.2048 73.764 34.727 74.4062 34.727 74.4062Z" fill="#5382A1"/>
<path d="M78.7134 98.9931C104.025 85.84 92.3222 73.2 84.1534 74.9029C82.1513 75.3196 81.2585 75.6807 81.2585 75.6807C81.2585 75.6807 82.0018 74.5164 83.4214 74.0124C99.5818 68.3309 112.01 90.7691 78.2047 99.656C78.2047 99.6563 78.5963 99.3062 78.7134 98.9931Z" fill="#5382A1"/>
<path d="M63.4527 0.145088C63.4527 0.145088 77.4709 14.168 50.1571 35.7313C28.2542 53.0287 45.1625 62.8913 50.148 74.1596C37.3629 62.6244 27.9804 52.4698 34.2749 43.0189C43.5138 29.1458 69.1087 22.4196 63.4527 0.145088Z" fill="#E76F00"/>
<path d="M37.2142 134.635C61.5106 136.19 98.8204 133.772 99.704 122.276C99.704 122.276 98.0055 126.634 79.6244 130.095C58.8869 133.997 33.3102 133.542 18.1404 131.041C18.1407 131.04 21.2458 133.611 37.2142 134.635Z" fill="#5382A1"/>
</g>
<defs>
<clipPath id="clip0">
<rect width="100" height="135.156" fill="white"/>
</clipPath>
</defs>
</svg>
