<svg width="50" height="50" viewBox="0 0 50 50" fill="none" xmlns="http://www.w3.org/2000/svg">
<path d="M22.7458 29.0271H24.2167V36.9333H22.7458V36.0604C22.475 36.3812 22.1917 36.6271 21.9021 36.7958C21.1083 37.25 20.0229 37.2396 20.0229 35.6354V29.0271H21.4917V35.0875C21.4917 35.4062 21.5687 35.6208 21.8833 35.6208C22.1708 35.6208 22.5687 35.2542 22.7479 35.0292V29.0271H22.7458ZM24.0833 20.3167C24.5 20.3167 24.7312 19.9833 24.7312 19.5312V15.6687C24.7312 15.2042 24.5271 14.8771 24.0562 14.8771C23.6229 14.8771 23.4125 15.2125 23.4125 15.6687V19.5312C23.4104 19.9688 23.6562 20.3167 24.0833 20.3167ZM20.0396 26.2146H14.9583V27.7708H16.6729V36.9333H18.3292V27.7708H20.0396V26.2146ZM29.875 30.9083V35.2937C29.875 36.2729 29.5083 37.0312 28.5312 37.0312C27.9917 37.0312 27.5437 36.8354 27.1333 36.3229V36.9312H25.65V26.2125H27.1333V29.6625C27.4667 29.2583 27.9146 28.925 28.4417 28.925C29.5187 28.9271 29.875 29.8354 29.875 30.9083ZM28.3604 30.9979C28.3604 30.7312 28.3104 30.5292 28.2042 30.3896C28.025 30.1542 27.6958 30.1292 27.4396 30.2604L27.1354 30.5021V35.4292L27.4833 35.7083C27.7229 35.8292 28.0729 35.8375 28.2354 35.6271C28.3188 35.5146 28.3625 35.3333 28.3625 35.0812V30.9979H28.3604ZM50 25C50 38.8062 38.8062 50 25 50C11.1937 50 0 38.8062 0 25C0 11.1937 11.1937 0 25 0C38.8062 0 50 11.1937 50 25ZM27.6125 20.3104C27.6125 21.1312 27.8625 21.7938 28.6937 21.7938C29.1604 21.7938 29.8062 21.55 30.475 20.7563V21.6729H32.0187V13.3687H30.475V19.6708C30.2875 19.9062 29.8687 20.2937 29.5667 20.2937C29.2354 20.2937 29.1562 20.0688 29.1562 19.7333V13.3687H27.6125V20.3104ZM21.8229 15.5312V19.6021C21.8229 21.0667 22.5875 21.8271 24.0833 21.8271C25.3271 21.8271 26.3021 20.9958 26.3021 19.6021V15.5312C26.3021 14.2312 25.3333 13.3 24.0833 13.3C22.725 13.3 21.8229 14.2 21.8229 15.5312ZM16.0708 10.4167L18.1396 17.1063V21.6708H19.8792V17.1063L21.9021 10.4167H20.1354L19.0208 14.9167L17.8229 10.4167H16.0708ZM37.1521 31.6833C37.125 26.2562 36.7271 24.1792 33.3021 23.9458C30.1396 23.7292 19.8542 23.7313 16.6958 23.9458C13.275 24.1792 12.8729 26.2458 12.8458 31.6833C12.8729 37.1125 13.2708 39.1875 16.6958 39.4229C19.8542 39.6375 30.1396 39.6375 33.3021 39.4229C36.725 39.1875 37.125 37.1229 37.1521 31.6833ZM35.3083 31.1521V33.1646H32.4958V34.6562C32.4958 35.25 32.5458 35.7625 33.1375 35.7625C33.7583 35.7625 33.7938 35.3458 33.7938 34.6562V34.1063H35.3083V34.7C35.3083 36.2229 34.6562 37.1458 33.1062 37.1458C31.6979 37.1458 30.9833 36.1229 30.9833 34.7V31.15C30.9833 29.7771 31.8896 28.825 33.2146 28.825C34.6271 28.8271 35.3083 29.7229 35.3083 31.1521ZM33.7958 31.1375C33.7958 30.6042 33.6833 30.2104 33.1521 30.2104C32.6083 30.2104 32.4979 30.5937 32.4979 31.1375V31.9396H33.7958V31.1375Z" fill="#262626"/>
</svg>
